<svg xmlns="http://www.w3.org/2000/svg" width="1200" height="700" viewBox="0 0 1200 700">
  <defs>
    <linearGradient id="bg" x1="0" x2="1" y1="0" y2="1">
      <stop offset="0%" stop-color="#eff6ff" />
      <stop offset="100%" stop-color="#ecfeff" />
    </linearGradient>
  </defs>
  <rect width="1200" height="700" rx="32" fill="url(#bg)" />
  <rect x="70" y="50" width="1060" height="70" rx="20" fill="#ffffff" stroke="#dbeafe" />
  <text x="100" y="93" font-family="Inter, Arial, sans-serif" font-size="26" font-weight="700" fill="#0f172a">SmartStore AI • Dashboard</text>
  <rect x="70" y="150" width="250" height="480" rx="26" fill="#ffffff" stroke="#dbeafe" />
  <rect x="340" y="150" width="790" height="220" rx="26" fill="#ffffff" stroke="#dbeafe" />
  <rect x="340" y="390" width="380" height="240" rx="26" fill="#ffffff" stroke="#dbeafe" />
  <rect x="750" y="390" width="380" height="240" rx="26" fill="#ffffff" stroke="#dbeafe" />

  <rect x="100" y="190" width="190" height="54" rx="16" fill="#0891b2" />
  <text x="195" y="224" text-anchor="middle" font-family="Inter, Arial, sans-serif" font-size="18" font-weight="700" fill="#ffffff">Dashboard</text>
  <text x="100" y="280" font-family="Inter, Arial, sans-serif" font-size="18" fill="#334155">Products</text>
  <text x="100" y="332" font-family="Inter, Arial, sans-serif" font-size="18" fill="#334155">Add Product</text>
  <text x="100" y="384" font-family="Inter, Arial, sans-serif" font-size="18" fill="#334155">Analytics</text>
  <text x="100" y="436" font-family="Inter, Arial, sans-serif" font-size="18" fill="#334155">AI Content</text>

  <rect x="370" y="185" width="220" height="120" rx="22" fill="#f8fafc" stroke="#e2e8f0" />
  <rect x="610" y="185" width="220" height="120" rx="22" fill="#f8fafc" stroke="#e2e8f0" />
  <rect x="850" y="185" width="250" height="120" rx="22" fill="#f8fafc" stroke="#e2e8f0" />
  <text x="390" y="220" font-family="Inter, Arial, sans-serif" font-size="16" font-weight="700" fill="#64748b">Total Revenue</text>
  <text x="390" y="260" font-family="Inter, Arial, sans-serif" font-size="40" font-weight="800" fill="#0f172a">$12,000</text>
  <text x="630" y="220" font-family="Inter, Arial, sans-serif" font-size="16" font-weight="700" fill="#64748b">Units Sold</text>
  <text x="630" y="260" font-family="Inter, Arial, sans-serif" font-size="40" font-weight="800" fill="#0f172a">120</text>
  <text x="870" y="220" font-family="Inter, Arial, sans-serif" font-size="16" font-weight="700" fill="#64748b">Products</text>
  <text x="870" y="260" font-family="Inter, Arial, sans-serif" font-size="40" font-weight="800" fill="#0f172a">3</text>

  <rect x="370" y="430" width="310" height="150" rx="20" fill="#ecfeff" stroke="#a5f3fc" />
  <text x="390" y="465" font-family="Inter, Arial, sans-serif" font-size="18" font-weight="700" fill="#0f766e">AI Suggestions</text>
  <text x="390" y="500" font-family="Inter, Arial, sans-serif" font-size="15" fill="#0f172a">• Boost social ads</text>
  <text x="390" y="528" font-family="Inter, Arial, sans-serif" font-size="15" fill="#0f172a">• Bundle best sellers</text>
  <text x="390" y="556" font-family="Inter, Arial, sans-serif" font-size="15" fill="#0f172a">• Restock low inventory</text>

  <rect x="760" y="430" width="310" height="150" rx="20" fill="#f0fdf4" stroke="#bbf7d0" />
  <text x="780" y="465" font-family="Inter, Arial, sans-serif" font-size="18" font-weight="700" fill="#15803d">Revenue Chart</text>
  <line x1="790" y1="560" x2="1040" y2="500" stroke="#0ea5e9" stroke-width="6" stroke-linecap="round" />
  <circle cx="820" cy="548" r="6" fill="#0ea5e9" />
  <circle cx="900" cy="532" r="6" fill="#0ea5e9" />
  <circle cx="980" cy="512" r="6" fill="#0ea5e9" />
</svg>
